<?xml version="1.0" encoding="UTF-8"?>
<svg xmlns="http://www.w3.org/2000/svg" id="Layer_1" version="1.1" viewBox="0 0 323.6 84.5">
  <defs>
    <style>
      .st0 {
        fill: #fff;
      }
    </style>
  </defs>
  <path class="st0" d="M32.6,83.5h-6.9L0,28.2h17.9c0,2.3,14.5,36.4,16.5,40.9,10.9-22.7,6.1-37.3-1.3-40.9h23.4c0,2.3,14.5,36.4,16.5,40.9,10.9-22.7,6.1-37.3-1.3-40.9h23.4v1.2l-23.9,54.2h-6.9l-16.2-35-15.4,35Z"></path>
  <path class="st0" d="M105.1,83.5v-44.1c0-6.9-2.4-6.8-7.4-7.4v-1.6l22.9-1.8v55h-15.6ZM101.4,10c0-5.6,4.4-10,10-10s10,4.4,10,10-4.1,10-10,10-10-4.4-10-10Z"></path>
  <path class="st0" d="M166,75.8c-4.1,5.6-9.9,8.6-15.2,8.6-10,0-14.9-8.9-14.9-18v-29.8c0-4.6-2.3-6.9-6.9-6.9h-1.6v-1.2l22.9-16.5h1.2v16.1h13.6v3.1h-13.6v35.3c0,3.9.6,11.8,6.1,11.8s4.5-1,7.7-3.5l.7.9Z"></path>
  <path class="st0" d="M188.6,83.5h-15.6V10.9c0-6.1-2.1-5.9-7.4-6.5v-1.6l22.9-2.3v38.5c3.9-6,12.2-12,19.6-12,10.5,0,15.8,6.6,15.8,16.7v39.8h-15.6v-38.5c0-5.3-2.3-8.6-7.8-8.6s-9,2.3-12,5.3v41.8Z"></path>
  <path class="st0" d="M239.3,83.5v-44.1c0-6.9-2.4-6.8-7.4-7.4v-1.6l22.9-1.8v55h-15.6ZM235.6,10c0-5.6,4.4-10,10-10s10,4.4,10,10-4.1,10-10,10-10-4.4-10-10Z"></path>
  <path class="st0" d="M285.9,83.5h-15.6v-46.8c0-6.1-2.1-5.9-7.4-6.5v-1.6l22.9-2.3v12.7c4.1-6,13-12,20.9-12,11.2,0,16.8,6.6,16.8,16.7v39.8h-15.6v-38.5c0-5.3-2.5-8.6-8.8-8.6s-10,2.3-13.4,5.3v41.8Z"></path>
</svg>
